<svg version="1.1" xmlns="http://www.w3.org/2000/svg" xmlns:xlink="http://www.w3.org/1999/xlink" width="64" height="64">
	<defs>
		<symbol id="casa" viewBox="0 0 460.298 460.297">
			<title>Casa</title>
			<path d="M230.149 120.939L65.986 256.274c0 .191-.048.472-.144.855-.094.38-.144.656-.144.852v137.041c0 4.948 1.809 9.236 5.426 12.847 3.616 3.613 7.898 5.431 12.847 5.431h109.63V303.664h73.097v109.64h109.629c4.948 0 9.236-1.814 12.847-5.435 3.617-3.607 5.432-7.898 5.432-12.847V257.981c0-.76-.104-1.334-.288-1.707L230.149 120.939z"></path>
			<path d="M457.122 225.438L394.6 173.476V56.989c0-2.663-.856-4.853-2.574-6.567-1.704-1.712-3.894-2.568-6.563-2.568h-54.816c-2.666 0-4.855.856-6.57 2.568-1.711 1.714-2.566 3.905-2.566 6.567v55.673l-69.662-58.245c-6.084-4.949-13.318-7.423-21.694-7.423-8.375 0-15.608 2.474-21.698 7.423L3.172 225.438c-1.903 1.52-2.946 3.566-3.14 6.136-.193 2.568.472 4.811 1.997 6.713l17.701 21.128c1.525 1.712 3.521 2.759 5.996 3.142 2.285.192 4.57-.476 6.855-1.998L230.149 95.817l197.57 164.741c1.526 1.328 3.521 1.991 5.996 1.991h.858c2.471-.376 4.463-1.43 5.996-3.138l17.703-21.125c1.522-1.906 2.189-4.145 1.991-6.716-.195-2.563-1.242-4.609-3.141-6.132z"></path>
		</symbol>

		<symbol id="alarm" viewBox="0 0 64 64">
			<title>Alarme</title>
			<rect x="7" y="27" width="8" height="2"/>
			<rect x="49" y="27" width="8" height="2"/>
			<rect x="31" y="3" width="2" height="8"/>
			<path d="M47.2,20.4l6.9-4l-1-1.7l-6.9,4L47.2,20.4z"/>
			<path d="M41.4,13.8l4-6.9l-1.7-1l-4,6.9L41.4,13.8z"/>
			<path d="M24.4,12.8l-4-6.9l-1.7,1l4,6.9L24.4,12.8z"/>
			<path d="M17.8,18.6l-6.9-4l-1,1.7l6.9,4L17.8,18.6z"/>
			<path d="M13,52v-5c0-2.2,1.8-4,4-4h30c2.2,0,4,1.8,4,4v5H13z"/>
			<path d="M32,14c-7.7,0-14,6.3-14,14v13h17V28c0-1.7,1.3-3,3-3s3,1.3,3,3v13h5V28C46,20.3,39.7,14,32,14z"/>

		</symbol>

		<symbol id="smoke-sensor" viewBox="0 0 64 64">
			<title>Detector de fumaça</title>
			<path d="M24 23c0-1.103-.897-2-2-2s-2 .897-2 2v8h4zm20 0c0-1.103-.897-2-2-2s-2 .897-2 2v8h4z"></path>
			<path d="M15.598 28.332A2.997 2.997 0 0018 30.943V23c0-2.206 1.794-4 4-4s4 1.794 4 4v8h2v-8c0-2.206 1.794-4 4-4s4 1.794 4 4v8h2v-8c0-2.206 1.794-4 4-4s4 1.794 4 4v7.942a2.998 2.998 0 002.402-2.611L49.883 15H14.117z"></path>
			<path d="M34 23c0-1.103-.897-2-2-2s-2 .897-2 2v8h4zM56.838 3H7.162a4.167 4.167 0 00-3.948 5.478l.558 1.676A4.157 4.157 0 007.721 13H56.28a4.159 4.159 0 003.949-2.846l.558-1.675A4.167 4.167 0 0056.838 3zM16 9a1 1 0 01-1 1H9a1 1 0 01-1-1V7a1 1 0 011-1h6a1 1 0 011 1zm33 2h-2V9h2zm0-4h-2V5h2zm4 4h-2V9h2zm0-4h-2V5h2zm4 4h-2V9h2zm0-4h-2V5h2zM37.293 54.207c-.851-.85-1.791-1.79-2.146-3.094C34.239 51.34 33 52.014 33 54v1h-2v-3c0-1.73-.653-2.463-1.213-2.772-.392 1.093-1.264 1.943-2.115 2.773C26.358 53.281 25 54.604 25 57c0 1.383 1.463 4 7 4s7-2.617 7-4c0-1.086-.791-1.877-1.707-2.793z"></path>
			<path d="M42.098 41.458C41.214 42.193 40 44.094 40 49h-2c0-2.57.326-4.476.809-5.895a16.753 16.753 0 00-.738-1.08c-.874-1.189-1.772-2.413-2.01-4.759-.806.383-1.93 1.328-2.567 3.601C33.809 42.01 34 43.37 34 45h-2c0-5.754-2.598-7.37-4.054-7.823-.233 2.427-1.177 3.72-2.023 4.879-.257.353-.498.7-.726 1.066.48 1.417.803 3.318.803 5.878h-2c0-4.894-1.208-6.797-2.099-7.536-.326 2.312-1.411 3.717-2.465 5.084C18.183 48.172 17 49.706 17 53c0 5.898 4.132 8 8 8h.102C23.54 59.72 23 58.101 23 57c0-3.239 1.816-5.009 3.276-6.432C27.345 49.526 28 48.845 28 48v-1h1c1.127 0 3.073.694 3.755 3.089C33.807 49.278 35.108 49 36 49h1v1c0 1.086.791 1.877 1.707 2.793C39.782 53.868 41 55.086 41 57c0 1.101-.54 2.72-2.102 4H39c3.868 0 8-2.102 8-8 0-3.294-1.183-4.828-2.436-6.452-1.056-1.367-2.141-2.774-2.466-5.09z"></path>
		</symbol>
		
		<symbol id="gas-sensor" viewBox="0 0 452.608 452.608">
			<title>Detector de gas</title>
			<path d="M285.184 92.672V63.488h6.656c17.408 0 31.744-14.336 31.744-31.744S309.248 0 291.84 0H160.768c-17.408 0-31.744 14.336-31.744 31.744s14.336 31.744 31.744 31.744h6.656v29.184c-38.912 2.56-69.12 34.816-69.12 73.728v80.384h256V166.4c0-38.912-30.208-71.168-69.12-73.728zm-25.6-.512h-20.48V80.896h-25.6V92.16h-20.48V62.976h66.56V92.16zM98.304 272.384v81.92c0 28.16 15.872 53.76 40.96 66.56v31.744h174.08v-31.744c25.088-12.8 40.96-38.4 40.96-66.56v-81.92h-256z"></path>
		</symbol>

		<symbol id="led-lamp" viewBox="-104 0 448 448">
			<title>Lampada</title>
			<path d="M187 329.945L237.488 128H1.984l50.489 201.938A7.993 7.993 0 0060.23 336h119.008a7.999 7.999 0 007.762-6.055zM74.664 319.762a7.996 7.996 0 01-9.695-5.824l-40-160a8.003 8.003 0 015.828-9.704 8.007 8.007 0 019.7 5.828l40 160a8.005 8.005 0 01-5.833 9.7zm24.238.148a8.002 8.002 0 01-9.094-6.727l-24-160a8 8 0 016.712-9.113 8.007 8.007 0 019.113 6.715l24 160a7.984 7.984 0 01-1.457 5.95 7.98 7.98 0 01-5.239 3.175zm28.832-7.91a8 8 0 01-16 0V152a8 8 0 0116 0zm14.036 8a7.307 7.307 0 01-1.204-.09c-4.363-.656-7.37-4.726-6.718-9.094l24-160a8 8 0 019.113-6.71 8 8 0 016.71 9.109l-24 160A8 8 0 01141.77 320zm32.734-6.062a7.996 7.996 0 01-9.695 5.824c-4.286-1.07-6.891-5.414-5.825-9.7l40-160a8.005 8.005 0 019.7-5.828 8.003 8.003 0 015.828 9.704zM119.734 0C56.598.082 4.293 49.008 0 112h239.473C235.18 49.008 182.875.082 119.734 0zm48 352h-96v72c0 13.254 10.746 24 24 24h48c13.258 0 24-10.746 24-24zm-24 88h-48a8 8 0 010-16h48a8 8 0 010 16zm0-32h-48a8 8 0 010-16h48a8 8 0 010 16zm0-32h-48a8 8 0 010-16h48a8 8 0 010 16zm0 0"></path>
		</symbol>
	</defs>
</svg>
